<svg width="100" height="100" viewBox="0 0 100 100" fill="none" xmlns="http://www.w3.org/2000/svg">
<path d="M29.0875 18.75C31.9687 18.75 34.6313 18.9688 37.075 19.625C39.5125 20.0625 41.5187 20.975 43.3 22.0687C45.0875 23.1687 46.4062 24.7312 47.3062 26.7375C48.1812 28.7375 48.6562 31.1812 48.6562 33.8437C48.6562 36.9437 47.9937 39.6063 46.4312 41.6063C45.0875 43.6063 42.8938 45.3937 40.2 46.7125C43.9875 47.8125 46.8688 49.8125 48.625 52.475C50.3813 55.1375 51.5063 58.4562 51.5063 62.2437C51.5063 65.3437 50.85 68.0063 49.725 70.2313C48.6027 72.4708 46.9187 74.3809 44.8375 75.775C42.8375 77.1187 40.3938 78.2125 37.7313 78.875C35.1231 79.5638 32.441 79.9331 29.7437 79.975L0 80.0188V18.75H29.0875ZM27.3062 43.6125C29.7437 43.6125 31.7438 42.9562 33.2875 41.8312C34.825 40.7062 35.5063 38.725 35.5063 36.2875C35.5063 34.9375 35.2875 33.625 34.85 32.7437C34.3764 31.8506 33.6894 31.0884 32.85 30.525C31.9433 30.0306 30.9742 29.6606 29.9688 29.425C28.8688 29.2063 27.7438 29.2062 26.425 29.2062H13.5625V43.6437C13.5625 43.6125 27.3062 43.6125 27.3062 43.6125ZM27.9625 69.8187C29.3062 69.8187 30.625 69.6 31.75 69.3812C32.85 69.1625 33.975 68.7188 34.85 68.0313C35.725 67.3438 36.4125 66.6875 37.075 65.5937C37.5125 64.4937 37.95 63.15 37.95 61.5875C37.95 58.4875 37.075 56.2625 35.2875 54.7C33.5062 53.3562 31.0625 52.7 28.1812 52.7H13.5625V69.7875H27.9687L27.9625 69.8187ZM70.825 69.6C72.6125 71.3812 75.2687 72.2625 78.8125 72.2625C81.25 72.2625 83.475 71.6 85.2625 70.475C87.0438 69.1313 88.1375 67.8125 88.575 66.475H99.45C97.6625 71.7937 95 75.5813 91.4625 78.025C87.925 80.2438 83.6938 81.5625 78.5875 81.5625C75.3223 81.577 72.0839 80.9726 69.0437 79.7813C66.3076 78.7641 63.8661 77.0849 61.9375 74.8937C59.8803 72.8505 58.3528 70.3361 57.4875 67.5687C56.3937 64.6875 55.925 61.5875 55.925 58.0187C55.925 54.7 56.3625 51.5687 57.4875 48.6875C58.6125 45.8125 60.15 43.3625 62.1562 41.1438C64.1562 39.1438 66.6 37.3563 69.2625 36.2563C72.2313 35.0742 75.3983 34.4697 78.5937 34.475C82.3812 34.475 85.7 35.1312 88.5813 36.6937C91.4563 38.2562 93.6875 40.0187 95.4687 42.6812C97.25 45.1187 98.5688 48 99.475 51.1063C99.9125 54.2063 100.131 57.3312 99.9125 60.875H67.725C67.725 64.5 69.0375 67.8125 70.825 69.6ZM84.825 46.275C83.2625 44.7125 80.8125 43.8313 77.9312 43.8313C75.9312 43.8313 74.3937 44.2688 73.05 44.9313C71.7062 45.5875 70.825 46.4937 69.95 47.3687C69.1331 48.2266 68.5892 49.3077 68.3875 50.475C68.1625 51.5688 67.95 52.475 67.95 53.35H87.925C87.4875 50.0625 86.3687 47.8375 84.825 46.275ZM65.2812 22.975H90.1438V28.9562H65.2812V22.975Z" fill="white"/>
</svg>
