<svg width="33" height="32" viewBox="0 0 33 32" fill="none" xmlns="http://www.w3.org/2000/svg">
  <path d="M21.2824 25H15.8426C15.6011 25.0001 15.3678 25.0844 15.1852 25.2375L9.28125 30V25H6.1875C5.914 25 5.65169 24.8946 5.4583 24.7071C5.2649 24.5196 5.15625 24.2652 5.15625 24V6C5.15625 5.73478 5.2649 5.48043 5.4583 5.29289C5.65169 5.10536 5.914 5 6.1875 5H26.8125C27.086 5 27.3483 5.10536 27.5417 5.29289C27.7351 5.48043 27.8438 5.73478 27.8438 6V19.5375C27.8417 19.6832 27.8072 19.8267 27.7427 19.9583C27.6782 20.0899 27.5851 20.2065 27.4699 20.3L21.9398 24.7625C21.7572 24.9156 21.5239 24.9999 21.2824 25V25Z" stroke="#9A35FF" stroke-width="2" stroke-linecap="round" stroke-linejoin="round"/>
  <path d="M21.6562 11V17" stroke="#9A35FF" stroke-width="2" stroke-linecap="round" stroke-linejoin="round"/>
  <path d="M15.4688 11V17" stroke="#9A35FF" stroke-width="2" stroke-linecap="round" stroke-linejoin="round"/>
</svg>   