<svg width="32" height="32" viewBox="0 0 32 32" fill="none" xmlns="http://www.w3.org/2000/svg">
  <path d="M20 16L14 12V20L20 16Z" stroke="#F40000" stroke-width="2" stroke-linecap="round" stroke-linejoin="round"/>
  <path d="M3 16C3 19.725 3.3875 21.9 3.675 23.025C3.75427 23.3302 3.90418 23.6126 4.11262 23.8493C4.32106 24.0859 4.58221 24.2703 4.875 24.3875C9.0625 25.9875 16 25.95 16 25.95C16 25.95 22.9375 25.9875 27.125 24.3875C27.4178 24.2703 27.6789 24.0859 27.8874 23.8493C28.0958 23.6126 28.2457 23.3302 28.325 23.025C28.6125 21.9 29 19.725 29 16C29 12.275 28.6125 10.1 28.325 8.975C28.2457 8.66975 28.0958 8.38741 27.8874 8.15074C27.6789 7.91407 27.4178 7.7297 27.125 7.6125C22.9375 6.0125 16 6.05 16 6.05C16 6.05 9.0625 6.0125 4.875 7.6125C4.58221 7.7297 4.32106 7.91407 4.11262 8.15074C3.90418 8.38741 3.75427 8.66975 3.675 8.975C3.3875 10.1 3 12.275 3 16Z" stroke="#F40000" stroke-width="2" stroke-linecap="round" stroke-linejoin="round"/>
</svg>